<?xml version="1.0" encoding="utf-8"?>
<!-- Generator: Adobe Illustrator 16.0.0, SVG Export Plug-In . SVG Version: 6.00 Build 0)  -->
<!DOCTYPE svg PUBLIC "-//W3C//DTD SVG 1.1//EN" "http://www.w3.org/Graphics/SVG/1.1/DTD/svg11.dtd">
<svg version="1.1" id="Layer_1" xmlns="http://www.w3.org/2000/svg" xmlns:xlink="http://www.w3.org/1999/xlink" x="0px" y="0px"
	 width="106.091px" height="102.195px" viewBox="0 0 106.091 102.195" enable-background="new 0 0 106.091 102.195"
	 xml:space="preserve">
<g>
	<defs>
		<rect id="SVGID_1_" width="106.091" height="102.195"/>
	</defs>
	<clipPath id="SVGID_2_">
		<use xlink:href="#SVGID_1_"  overflow="visible"/>
	</clipPath>
	<path clip-path="url(#SVGID_2_)" fill="none" stroke="#FFFFFF" stroke-width="6.99" stroke-miterlimit="10" d="M61.775,8.922
		l7.771,15.745c1.418,2.873,4.157,4.864,7.329,5.325l17.376,2.524c7.985,1.16,11.172,10.973,5.396,16.604L87.072,61.377
		c-2.295,2.237-3.34,5.459-2.799,8.616l2.967,17.306c1.365,7.952-6.981,14.016-14.123,10.262L57.574,89.39
		c-2.836-1.491-6.224-1.491-9.059,0l-15.542,8.171c-7.141,3.754-15.488-2.31-14.124-10.262l2.968-17.306
		c0.542-3.157-0.505-6.379-2.799-8.616L6.445,49.121c-5.777-5.632-2.589-15.444,5.395-16.604l17.376-2.524
		c3.171-0.461,5.912-2.452,7.329-5.325l7.772-15.745C47.887,1.687,58.203,1.687,61.775,8.922z"/>
	<path clip-path="url(#SVGID_2_)" fill="#FFD400" d="M61.775,8.922l7.771,15.745c1.418,2.873,4.157,4.864,7.329,5.325l17.376,2.524
		c7.985,1.16,11.172,10.973,5.396,16.604L87.072,61.377c-2.295,2.237-3.34,5.459-2.799,8.616l2.967,17.306
		c1.365,7.952-6.981,14.016-14.123,10.262L57.574,89.39c-2.836-1.491-6.224-1.491-9.059,0l-15.542,8.171
		c-7.141,3.754-15.488-2.31-14.124-10.262l2.968-17.306c0.542-3.157-0.505-6.379-2.799-8.616L6.445,49.121
		c-5.777-5.632-2.589-15.444,5.395-16.604l17.376-2.524c3.171-0.461,5.912-2.452,7.329-5.325l7.772-15.745
		C47.887,1.687,58.203,1.687,61.775,8.922"/>
	<path clip-path="url(#SVGID_2_)" fill="#F99E1C" d="M99.383,89.545c0,4.791-3.884,8.675-8.675,8.675
		c-4.79,0-8.674-3.884-8.674-8.675s3.884-8.676,8.674-8.676C95.499,80.869,99.383,84.754,99.383,89.545"/>
	<path clip-path="url(#SVGID_2_)" fill="#FFFFFF" d="M90.709,82.181c-4.061,0-7.365,3.303-7.365,7.364
		c0,4.06,3.305,7.364,7.365,7.364c4.06,0,7.363-3.305,7.363-7.364C98.072,85.483,94.769,82.181,90.709,82.181 M90.709,99.53
		c-5.507,0-9.985-4.479-9.985-9.985s4.479-9.986,9.985-9.986c5.506,0,9.984,4.48,9.984,9.986S96.215,99.53,90.709,99.53"/>
	<path clip-path="url(#SVGID_2_)" fill="#FFFFFF" d="M95.658,89.039c0,0.373-0.083,0.762-0.25,1.164
		c-0.166,0.404-0.388,0.792-0.665,1.164c-0.276,0.373-0.603,0.721-0.977,1.041c-0.375,0.321-0.757,0.574-1.144,0.761l-0.666-0.403
		c0.914-0.436,1.373-1.015,1.373-1.739l-0.125-0.155c-1.222-0.29-1.83-1.004-1.83-2.143c0-0.496,0.193-0.947,0.582-1.351
		c0.387-0.403,0.9-0.605,1.539-0.605c0.692,0,1.227,0.223,1.602,0.668C95.471,87.887,95.658,88.418,95.658,89.039 M90.709,89.039
		c0,0.373-0.084,0.762-0.25,1.164c-0.166,0.404-0.389,0.792-0.666,1.164c-0.277,0.373-0.603,0.721-0.978,1.041
		c-0.373,0.321-0.755,0.574-1.144,0.761l-0.666-0.403c0.916-0.436,1.373-1.015,1.373-1.739l-0.125-0.155
		c-1.221-0.29-1.83-1.004-1.83-2.143c0-0.496,0.193-0.947,0.582-1.351s0.901-0.605,1.539-0.605c0.693,0,1.228,0.223,1.602,0.668
		C90.521,87.887,90.709,88.418,90.709,89.039"/>
	<path clip-path="url(#SVGID_2_)" fill="#F99E1C" d="M9.569,28.379c0-4.791,3.883-8.675,8.675-8.675c4.79,0,8.674,3.884,8.674,8.675
		s-3.884,8.675-8.674,8.675C13.452,37.054,9.569,33.17,9.569,28.379"/>
	<path clip-path="url(#SVGID_2_)" fill="#FFFFFF" d="M18.243,21.015c-4.06,0-7.364,3.304-7.364,7.364s3.304,7.364,7.364,7.364
		c4.061,0,7.364-3.304,7.364-7.364S22.304,21.015,18.243,21.015 M18.243,38.364c-5.506,0-9.985-4.479-9.985-9.985
		s4.479-9.985,9.985-9.985c5.506,0,9.985,4.479,9.985,9.985S23.75,38.364,18.243,38.364"/>
	<path clip-path="url(#SVGID_2_)" fill="#FFFFFF" d="M13.293,28.884c0-0.373,0.084-0.761,0.25-1.164s0.389-0.792,0.665-1.165
		c0.278-0.372,0.604-0.719,0.978-1.04c0.375-0.32,0.756-0.573,1.144-0.761l0.665,0.404c-0.915,0.435-1.372,1.014-1.372,1.738
		l0.124,0.155c1.221,0.29,1.831,1.004,1.831,2.144c0,0.496-0.194,0.946-0.583,1.35c-0.388,0.404-0.9,0.605-1.539,0.605
		c-0.692,0-1.227-0.223-1.602-0.667C13.481,30.037,13.293,29.505,13.293,28.884 M18.243,28.884c0-0.373,0.083-0.761,0.25-1.164
		c0.166-0.403,0.388-0.792,0.665-1.165c0.278-0.372,0.603-0.719,0.978-1.04c0.374-0.32,0.756-0.573,1.143-0.761l0.666,0.404
		c-0.915,0.435-1.372,1.014-1.372,1.738l0.124,0.155c1.221,0.29,1.83,1.004,1.83,2.144c0,0.496-0.193,0.946-0.582,1.35
		c-0.388,0.404-0.9,0.605-1.539,0.605c-0.693,0-1.227-0.223-1.601-0.667C18.43,30.037,18.243,29.505,18.243,28.884"/>
</g>
<g>
	<defs>
		<rect id="SVGID_3_" width="106.091" height="102.195"/>
	</defs>
	<clipPath id="SVGID_4_">
		<use xlink:href="#SVGID_3_"  overflow="visible"/>
	</clipPath>
</g>
<g>
	<defs>
		<rect id="SVGID_5_" width="106.091" height="102.195"/>
	</defs>
	<clipPath id="SVGID_6_">
		<use xlink:href="#SVGID_5_"  overflow="visible"/>
	</clipPath>
</g>
</svg>
