<?xml version="1.0" encoding="utf-8"?>
<!-- Generator: Adobe Illustrator 16.0.0, SVG Export Plug-In . SVG Version: 6.00 Build 0)  -->
<!DOCTYPE svg PUBLIC "-//W3C//DTD SVG 1.1//EN" "http://www.w3.org/Graphics/SVG/1.1/DTD/svg11.dtd">
<svg version="1.1" id="Layer_1" xmlns="http://www.w3.org/2000/svg" xmlns:xlink="http://www.w3.org/1999/xlink" x="0px" y="0px"
	 width="167.25px" height="30.375px" viewBox="0 0 167.25 30.375" enable-background="new 0 0 167.25 30.375" xml:space="preserve">
<g>
	<g>
		<g opacity="0.2">
			<g>
				<path fill="#5DC19D" d="M166.827-31.272c5.028,12.699,4.141,27.172-4.267,38.661c-8.408,11.49-24.793,19.375-41.343,18.363
					c-10.149-0.622-19.538-4.314-28.979-7.367s-19.791-5.542-29.689-3.64C49.9,17.174,40.609,26.252,28.105,29.122
					C15.03,32.123,0.349,27.4-8.327,18.993c-8.676-8.407-11.844-19.866-10.799-30.753c0.849-8.854,4.535-17.824,12.275-24.168
					c6.723-5.509,15.948-8.623,25.263-10.505s18.92-2.667,28.307-4.3c17.301-3.01,33.764-8.882,51.278-10.944
					C125.208-64.879,158.066-53.395,166.827-31.272"/>
			</g>
		</g>
		<path fill="#FBAF2C" d="M99.088-70.062c-3.11,0-6.193,0.175-9.205,0.529c-17.515,2.062-33.979,7.935-51.278,10.944
			c-9.387,1.633-18.992,2.418-28.306,4.3c-9.315,1.882-18.541,4.996-25.263,10.505c-7.742,6.343-11.426,15.313-12.276,24.168
			c-1.045,10.886,2.123,22.345,10.799,30.752c0.273,0.265,0.553,0.526,0.837,0.784c-3.131-6.493-4.191-13.704-3.522-20.681
			c0.85-8.854,4.535-17.824,12.276-24.168c6.722-5.509,15.948-8.623,25.263-10.505c9.314-1.882,18.919-2.667,28.306-4.3
			c17.3-3.01,33.765-8.882,51.277-10.944c3.014-0.354,6.096-0.528,9.207-0.528c18.711,0,38.465,6.313,50.479,17.748
			C148.769-59.688,123.071-70.062,99.088-70.062"/>
		<path fill="#D4DE28" d="M107.203-59.205c-3.111,0-6.193,0.175-9.207,0.528c-17.514,2.063-33.977,7.935-51.277,10.944
			c-9.387,1.633-18.992,2.418-28.307,4.3s-18.54,4.996-25.263,10.505c-7.741,6.344-11.426,15.313-12.275,24.168
			c-0.67,6.977,0.39,14.188,3.522,20.681C-8.699,18.157,1.562,22.173,11.8,22.173c2.754,0,5.507-0.291,8.191-0.907
			c12.504-2.87,21.794-11.948,34.442-14.377c2.396-0.461,4.818-0.664,7.25-0.664c7.606,0.001,15.285,1.99,22.44,4.304
			c9.44,3.054,18.831,6.745,28.979,7.367c0.959,0.058,1.916,0.087,2.871,0.087c15.547,0,30.551-7.626,38.472-18.45
			c8.407-11.488,9.295-25.962,4.266-38.66c-0.313-0.79-0.655-1.566-1.028-2.329C145.669-52.892,125.914-59.205,107.203-59.205"/>
	</g>
</g>
</svg>
