<?xml version="1.0" encoding="utf-8"?>
<!-- Generator: Adobe Illustrator 16.0.0, SVG Export Plug-In . SVG Version: 6.00 Build 0)  -->
<!DOCTYPE svg PUBLIC "-//W3C//DTD SVG 1.1//EN" "http://www.w3.org/Graphics/SVG/1.1/DTD/svg11.dtd">
<svg version="1.1" id="Layer_1" xmlns="http://www.w3.org/2000/svg" xmlns:xlink="http://www.w3.org/1999/xlink" x="0px" y="0px"
	 width="613.93px" height="62.336px" viewBox="0 0 613.93 62.336" enable-background="new 0 0 613.93 62.336" xml:space="preserve">
<rect x="-5.201" y="51.001" fill="#FFFFFF" width="622" height="16.666"/>
<g>
	<path fill="#96CD82" d="M613.929,62.02l-0.5-24.055c-22.573-8-50.374-1.938-68.728,5c-29.099,11-58.194,5.752-92.311-5
		c-48.083-15.155-60.19,8.615-114.383,9C276.803,47.4,245.293,26.334,226.674,20.33c-18.617-6.004-38.929-6.874-79.551,0
		s-76.166,9.738-99.861-7.305C24.531-3.323,1.814,0.221,0,0.538v61.8c2.041-0.369,3.791-1.23,5.351-2.659
		c2.654-2.433,5.459-2.196,8.489,0.401c0.829,0.709,1.805,1.334,2.816,1.729c2.569,0.998,4.692-0.037,6.693-1.652
		c0.95-0.767,2.011-1.523,3.148-1.908c2.265-0.765,4.084,0.313,5.792,1.762c0.882,0.748,1.92,1.392,2.992,1.816
		c2.452,0.969,4.502-0.022,6.433-1.537c0.995-0.783,2.048-1.613,3.213-2.027c2.229-0.795,4.098,0.271,5.875,1.572
		c1.046,0.767,2.154,1.508,3.342,2.006c2.298,0.97,4.245-0.024,6.088-1.379c1.078-0.791,2.136-1.735,3.359-2.178
		c2.073-0.746,3.92,0.018,5.598,1.414c1.019,0.85,2.171,1.635,3.393,2.125c2.773,1.111,4.963-0.273,6.971-2.015
		c2.771-2.401,5.378-2.38,8.232-0.021c0.973,0.807,2.074,1.545,3.237,2.017c2.712,1.103,4.992-0.058,6.891-1.89
		c2.432-2.344,5.864-2.535,8.349-0.205c0.913,0.857,2.043,1.584,3.2,2.064c2.688,1.115,4.94,0.008,6.914-1.789
		c1.674-1.523,3.548-2.49,5.789-1.727c1.168,0.398,2.237,1.216,3.214,2.011c1.473,1.198,3.096,2.062,4.972,1.929
		c1.656-0.117,3.119-0.929,4.431-2.044c0.928-0.786,2.009-1.521,3.148-1.907c2.22-0.75,4.018,0.289,5.715,1.701
		c0.937,0.779,2.039,1.438,3.171,1.891c2.444,0.978,4.511-0.004,6.459-1.496c1.031-0.789,2.099-1.657,3.295-2.078
		c2.096-0.737,3.913,0.107,5.58,1.488c0.997,0.826,2.118,1.594,3.31,2.068c2.819,1.123,5.003-0.324,7.053-2.066
		c2.804-2.381,5.412-2.301,8.236,0.082c0.962,0.813,2.086,1.52,3.251,1.986c2.685,1.077,4.918-0.117,6.8-1.895
		c2.397-2.264,5.728-2.848,8.647-0.008c2.932,2.852,6.725,2.938,10.029-0.092c2.786-2.558,5.607-2.447,8.485,0.025
		c0.972,0.834,2.147,1.563,3.354,1.962c2.589,0.856,4.761-0.22,6.63-1.981c1.676-1.578,3.598-2.319,5.832-1.586
		c0.928,0.306,1.825,0.902,2.56,1.563c3.363,3.022,6.823,3.101,10.097,0.038c2.567-2.404,6.228-2.477,8.71-0.02
		c3.125,3.09,7.012,2.963,10.003,0.059c2.826-2.745,6.239-2.336,8.485-0.098c0.996,0.994,2.162,1.781,3.625,2.106
		c2.28,0.509,4.15-0.169,5.929-1.549c1.049-0.813,2.159-1.651,3.38-2.111c1.837-0.69,3.57-0.126,5.081,1.124
		c1.267,1.049,2.452,2.18,4.183,2.549c2.161,0.459,3.971-0.117,5.679-1.396c1.098-0.821,2.178-1.795,3.43-2.254
		c2.438-0.893,4.429,0.242,6.211,1.902c2.676,2.49,6.063,2.582,8.913,0.305c0.265-0.211,0.543-0.405,0.795-0.631
		c2.846-2.545,5.689-2.465,8.574,0.066c0.938,0.822,2.097,1.521,3.273,1.911c2.496,0.829,4.641-0.134,6.492-1.817
		c2.943-2.674,5.648-2.719,8.632-0.16c1.708,1.465,3.699,2.453,5.969,2.356c1.508-0.063,2.896-0.756,4.127-1.755
		c1.031-0.841,2.135-1.729,3.359-2.168c2.039-0.732,3.849,0.042,5.512,1.391c1.079,0.871,2.308,1.627,3.579,2.184
		c2.219,0.97,4.134-0.004,5.908-1.307c1.212-0.889,2.212-2.05,3.819-2.373c1.963-0.395,3.534,0.205,5.066,1.375
		c1.162,0.887,2.421,1.699,3.745,2.307c2.089,0.955,3.945,0.049,5.667-1.125c0.696-0.475,1.29-1.096,1.974-1.59
		c2.229-1.618,4.869-1.442,6.989,0.291c1.087,0.888,2.243,1.779,3.515,2.328c2.668,1.153,4.875-0.018,6.949-1.701
		c0.897-0.729,1.903-1.445,2.981-1.803c2.358-0.781,4.211,0.375,5.96,1.873c0.827,0.709,1.813,1.313,2.828,1.7
		c2.534,0.97,4.627-0.063,6.602-1.642c0.956-0.766,2.005-1.543,3.142-1.928c2.254-0.763,4.082,0.287,5.805,1.729
		c0.933,0.78,2.046,1.431,3.183,1.862c2.441,0.935,4.502-0.057,6.444-1.535c1.032-0.785,2.109-1.635,3.308-2.053
		c2.153-0.75,3.959,0.197,5.645,1.597c0.988,0.819,2.155,1.491,3.343,1.993c2.266,0.959,4.18-0.043,6.001-1.348
		c1.115-0.799,2.194-1.768,3.448-2.224c2.032-0.737,3.856,0.019,5.509,1.388c1.023,0.846,2.161,1.653,3.382,2.149
		c2.762,1.122,4.968-0.228,6.983-1.968c2.813-2.428,5.418-2.426,8.235-0.1c0.999,0.825,2.127,1.584,3.32,2.066
		c2.67,1.085,4.933-0.059,6.804-1.859c2.499-2.408,5.944-2.594,8.33-0.262c0.387,0.377,0.804,0.73,1.245,1.042
		c3.057,2.146,5.827,1.897,8.841-0.606c0.913-0.76,1.948-1.502,3.055-1.875c2.306-0.777,4.154,0.314,5.886,1.791
		c0.854,0.729,1.86,1.362,2.902,1.776c2.492,0.989,4.599,0.013,6.514-1.58c1.109-0.924,2.163-1.832,3.716-2.106
		c2.067-0.365,3.656,0.279,5.215,1.541c1.059,0.854,2.235,1.693,3.5,2.129c2.381,0.82,4.513-0.002,6.342-1.637
		c1.275-1.142,2.591-2.148,4.426-2.179c1.571-0.024,2.888,0.513,4.053,1.538c1.139,1.003,2.278,1.982,3.836,2.355
		c2.344,0.56,4.335-0.066,6.09-1.614c1.438-1.271,2.91-2.394,5.002-2.285c1.627,0.084,2.916,0.815,4.019,1.899
		c2.907,2.858,6.826,3.113,10.088-0.088c2.221-2.18,5.616-2.685,8.483,0.1C610.116,61.491,612.013,62.189,613.929,62.02"/>
</g>
</svg>
