<?xml version="1.0" encoding="utf-8"?>
<!-- Generator: Adobe Illustrator 16.0.0, SVG Export Plug-In . SVG Version: 6.00 Build 0)  -->
<!DOCTYPE svg PUBLIC "-//W3C//DTD SVG 1.1//EN" "http://www.w3.org/Graphics/SVG/1.1/DTD/svg11.dtd">
<svg version="1.1" id="Layer_1" xmlns="http://www.w3.org/2000/svg" xmlns:xlink="http://www.w3.org/1999/xlink" x="0px" y="0px"
	 width="106.091px" height="102.195px" viewBox="0 0 106.091 102.195" enable-background="new 0 0 106.091 102.195"
	 xml:space="preserve">
<g>
	<g>
		<defs>
			<rect id="SVGID_1_" width="106.091" height="102.195"/>
		</defs>
		<clipPath id="SVGID_2_">
			<use xlink:href="#SVGID_1_"  overflow="visible"/>
		</clipPath>
		<path clip-path="url(#SVGID_2_)" fill="none" stroke="#FFFFFF" stroke-width="6.99" stroke-miterlimit="10" d="M61.775,8.922
			l7.771,15.745c1.418,2.873,4.157,4.864,7.329,5.325l17.376,2.524c7.985,1.16,11.172,10.973,5.396,16.604L87.072,61.377
			c-2.295,2.237-3.34,5.459-2.799,8.616l2.967,17.306c1.365,7.952-6.981,14.016-14.123,10.262L57.574,89.39
			c-2.836-1.491-6.224-1.491-9.059,0l-15.542,8.171c-7.141,3.754-15.488-2.31-14.124-10.262l2.968-17.306
			c0.542-3.157-0.505-6.379-2.799-8.616L6.445,49.121c-5.777-5.632-2.589-15.444,5.395-16.604l17.376-2.524
			c3.171-0.461,5.912-2.452,7.329-5.325l7.772-15.745C47.887,1.687,58.203,1.687,61.775,8.922z"/>
		<path clip-path="url(#SVGID_2_)" fill="#FFD400" d="M61.775,8.922l7.771,15.745c1.418,2.873,4.157,4.864,7.329,5.325l17.376,2.524
			c7.985,1.16,11.172,10.973,5.396,16.604L87.072,61.377c-2.295,2.237-3.34,5.459-2.799,8.616l2.967,17.306
			c1.365,7.952-6.981,14.016-14.123,10.262L57.574,89.39c-2.836-1.491-6.224-1.491-9.059,0l-15.542,8.171
			c-7.141,3.754-15.488-2.31-14.124-10.262l2.968-17.306c0.542-3.157-0.505-6.379-2.799-8.616L6.445,49.121
			c-5.777-5.632-2.589-15.444,5.395-16.604l17.376-2.524c3.171-0.461,5.912-2.452,7.329-5.325l7.772-15.745
			C47.887,1.687,58.203,1.687,61.775,8.922"/>
		<path clip-path="url(#SVGID_2_)" fill="#F99E1C" d="M99.383,89.545c0,4.791-3.884,8.675-8.675,8.675
			c-4.79,0-8.674-3.884-8.674-8.675s3.884-8.676,8.674-8.676C95.499,80.869,99.383,84.754,99.383,89.545"/>
		<path clip-path="url(#SVGID_2_)" fill="#FFFFFF" d="M90.709,82.181c-4.061,0-7.365,3.303-7.365,7.364
			c0,4.06,3.305,7.364,7.365,7.364c4.06,0,7.363-3.305,7.363-7.364C98.072,85.483,94.769,82.181,90.709,82.181 M90.709,99.53
			c-5.507,0-9.985-4.479-9.985-9.985s4.479-9.986,9.985-9.986c5.506,0,9.984,4.48,9.984,9.986S96.215,99.53,90.709,99.53"/>
		<path clip-path="url(#SVGID_2_)" fill="#FFFFFF" d="M95.658,89.039c0,0.373-0.083,0.762-0.25,1.164
			c-0.166,0.404-0.388,0.792-0.665,1.164c-0.276,0.373-0.603,0.721-0.977,1.041c-0.375,0.321-0.757,0.574-1.144,0.761l-0.666-0.403
			c0.914-0.436,1.373-1.015,1.373-1.739l-0.125-0.155c-1.222-0.29-1.83-1.004-1.83-2.143c0-0.496,0.193-0.947,0.582-1.351
			c0.387-0.403,0.9-0.605,1.539-0.605c0.692,0,1.227,0.223,1.602,0.668C95.471,87.887,95.658,88.418,95.658,89.039 M90.709,89.039
			c0,0.373-0.084,0.762-0.25,1.164c-0.166,0.404-0.389,0.792-0.666,1.164c-0.277,0.373-0.603,0.721-0.978,1.041
			c-0.373,0.321-0.755,0.574-1.144,0.761l-0.666-0.403c0.916-0.436,1.373-1.015,1.373-1.739l-0.125-0.155
			c-1.221-0.29-1.83-1.004-1.83-2.143c0-0.496,0.193-0.947,0.582-1.351s0.901-0.605,1.539-0.605c0.693,0,1.228,0.223,1.602,0.668
			C90.521,87.887,90.709,88.418,90.709,89.039"/>
		<path clip-path="url(#SVGID_2_)" fill="#F99E1C" d="M9.569,28.379c0-4.791,3.883-8.675,8.675-8.675
			c4.79,0,8.674,3.884,8.674,8.675s-3.884,8.675-8.674,8.675C13.452,37.054,9.569,33.17,9.569,28.379"/>
		<path clip-path="url(#SVGID_2_)" fill="#FFFFFF" d="M18.243,21.015c-4.06,0-7.364,3.304-7.364,7.364s3.304,7.364,7.364,7.364
			c4.061,0,7.364-3.304,7.364-7.364S22.304,21.015,18.243,21.015 M18.243,38.364c-5.506,0-9.985-4.479-9.985-9.985
			s4.479-9.985,9.985-9.985c5.506,0,9.985,4.479,9.985,9.985S23.75,38.364,18.243,38.364"/>
		<path clip-path="url(#SVGID_2_)" fill="#FFFFFF" d="M13.293,28.884c0-0.373,0.084-0.761,0.25-1.164s0.389-0.792,0.665-1.165
			c0.278-0.372,0.604-0.719,0.978-1.04c0.375-0.32,0.756-0.573,1.144-0.761l0.665,0.404c-0.915,0.435-1.372,1.014-1.372,1.738
			l0.124,0.155c1.221,0.29,1.831,1.004,1.831,2.144c0,0.496-0.194,0.946-0.583,1.35c-0.388,0.404-0.9,0.605-1.539,0.605
			c-0.692,0-1.227-0.223-1.602-0.667C13.481,30.037,13.293,29.505,13.293,28.884 M18.243,28.884c0-0.373,0.083-0.761,0.25-1.164
			c0.166-0.403,0.388-0.792,0.665-1.165c0.278-0.372,0.603-0.719,0.978-1.04c0.374-0.32,0.756-0.573,1.143-0.761l0.666,0.404
			c-0.915,0.435-1.372,1.014-1.372,1.738l0.124,0.155c1.221,0.29,1.83,1.004,1.83,2.144c0,0.496-0.193,0.946-0.582,1.35
			c-0.388,0.404-0.9,0.605-1.539,0.605c-0.693,0-1.227-0.223-1.601-0.667C18.43,30.037,18.243,29.505,18.243,28.884"/>
	</g>
	<g>
		<path fill="#BB2025" d="M40.439,30.516h-1.815v5.967c0,0.344-0.077,0.599-0.229,0.765c-0.153,0.166-0.351,0.249-0.594,0.249
			c-0.247,0-0.447-0.084-0.602-0.252c-0.155-0.168-0.232-0.422-0.232-0.762v-5.967H35.15c-0.284,0-0.495-0.063-0.633-0.188
			c-0.138-0.125-0.207-0.29-0.207-0.495c0-0.213,0.072-0.381,0.215-0.505c0.144-0.123,0.352-0.185,0.625-0.185h5.289
			c0.288,0,0.501,0.063,0.642,0.19s0.21,0.293,0.21,0.499c0,0.205-0.071,0.37-0.213,0.495
			C40.936,30.453,40.723,30.516,40.439,30.516z"/>
		<path fill="#BB2025" d="M45.581,36.634v-0.196c-0.183,0.231-0.375,0.426-0.577,0.583c-0.202,0.156-0.422,0.273-0.661,0.35
			c-0.239,0.077-0.512,0.115-0.818,0.115c-0.37,0-0.701-0.076-0.994-0.229c-0.293-0.153-0.521-0.364-0.681-0.634
			c-0.19-0.324-0.286-0.791-0.286-1.4V32.19c0-0.306,0.069-0.535,0.208-0.687s0.321-0.227,0.549-0.227
			c0.231,0,0.418,0.076,0.561,0.229c0.142,0.153,0.213,0.381,0.213,0.684v2.448c0,0.355,0.03,0.653,0.089,0.894
			c0.06,0.241,0.167,0.43,0.322,0.566c0.155,0.137,0.365,0.204,0.63,0.204c0.258,0,0.5-0.076,0.729-0.229
			c0.228-0.153,0.394-0.353,0.499-0.6c0.086-0.217,0.129-0.69,0.129-1.423v-1.86c0-0.303,0.071-0.53,0.213-0.684
			s0.327-0.229,0.555-0.229s0.411,0.075,0.549,0.227c0.138,0.151,0.207,0.381,0.207,0.687v4.432c0,0.292-0.066,0.511-0.199,0.656
			c-0.133,0.146-0.304,0.218-0.513,0.218c-0.209,0-0.382-0.075-0.519-0.227C45.648,37.118,45.581,36.906,45.581,36.634z"/>
		<path fill="#BB2025" d="M49.312,30.565c-0.213,0-0.395-0.065-0.546-0.196c-0.151-0.13-0.227-0.315-0.227-0.555
			c0-0.216,0.078-0.395,0.232-0.534c0.155-0.141,0.335-0.211,0.541-0.211c0.198,0,0.374,0.063,0.527,0.19
			c0.153,0.128,0.23,0.313,0.23,0.555c0,0.235-0.075,0.42-0.224,0.553C49.695,30.499,49.518,30.565,49.312,30.565z M50.069,32.146
			v4.421c0,0.307-0.073,0.538-0.219,0.694c-0.146,0.157-0.331,0.235-0.555,0.235s-0.406-0.08-0.546-0.24
			c-0.14-0.161-0.21-0.391-0.21-0.689V32.19c0-0.303,0.07-0.53,0.21-0.684s0.322-0.229,0.546-0.229s0.409,0.076,0.555,0.229
			S50.069,31.873,50.069,32.146z"/>
		<path fill="#BB2025" d="M51.732,31.412H51.9v-0.919c0-0.247,0.007-0.44,0.02-0.58c0.013-0.141,0.05-0.261,0.109-0.361
			c0.06-0.104,0.146-0.189,0.258-0.255c0.112-0.065,0.237-0.099,0.375-0.099c0.194,0,0.37,0.073,0.527,0.219
			c0.104,0.098,0.17,0.216,0.199,0.355c0.028,0.141,0.042,0.34,0.042,0.597v1.043h0.56c0.217,0,0.382,0.051,0.496,0.153
			c0.114,0.104,0.171,0.234,0.171,0.396c0,0.205-0.081,0.35-0.244,0.432s-0.395,0.123-0.698,0.123H53.43v2.813
			c0,0.239,0.008,0.423,0.025,0.552c0.017,0.129,0.062,0.233,0.134,0.313c0.073,0.081,0.191,0.121,0.356,0.121
			c0.089,0,0.211-0.016,0.364-0.048c0.153-0.031,0.273-0.048,0.359-0.048c0.123,0,0.234,0.05,0.333,0.148
			c0.099,0.1,0.148,0.222,0.148,0.367c0,0.247-0.135,0.436-0.403,0.566c-0.269,0.13-0.656,0.195-1.16,0.195
			c-0.478,0-0.84-0.08-1.087-0.24c-0.247-0.161-0.408-0.383-0.484-0.667c-0.077-0.284-0.115-0.663-0.115-1.138v-2.936h-0.202
			c-0.22,0-0.388-0.053-0.504-0.157c-0.116-0.104-0.173-0.237-0.173-0.397c0-0.161,0.061-0.292,0.182-0.396
			C51.324,31.463,51.501,31.412,51.732,31.412z"/>
		<path fill="#BB2025" d="M56.483,30.565c-0.213,0-0.395-0.065-0.546-0.196c-0.151-0.13-0.227-0.315-0.227-0.555
			c0-0.216,0.078-0.395,0.232-0.534c0.155-0.141,0.335-0.211,0.541-0.211c0.198,0,0.374,0.063,0.527,0.19
			c0.153,0.128,0.23,0.313,0.23,0.555c0,0.235-0.075,0.42-0.224,0.553C56.867,30.499,56.689,30.565,56.483,30.565z M57.24,32.146
			v4.421c0,0.307-0.073,0.538-0.219,0.694c-0.146,0.157-0.331,0.235-0.555,0.235s-0.406-0.08-0.546-0.24
			c-0.14-0.161-0.21-0.391-0.21-0.689V32.19c0-0.303,0.07-0.53,0.21-0.684s0.322-0.229,0.546-0.229s0.409,0.076,0.555,0.229
			S57.24,31.873,57.24,32.146z"/>
		<path fill="#BB2025" d="M64.546,34.387c0,0.456-0.071,0.876-0.213,1.261s-0.347,0.716-0.616,0.992s-0.59,0.488-0.964,0.636
			s-0.793,0.221-1.261,0.221c-0.463,0-0.879-0.074-1.249-0.224c-0.37-0.149-0.69-0.363-0.961-0.642
			c-0.271-0.278-0.477-0.607-0.617-0.986c-0.14-0.379-0.21-0.798-0.21-1.258c0-0.463,0.071-0.887,0.213-1.271
			s0.346-0.714,0.611-0.986s0.586-0.482,0.964-0.63c0.377-0.148,0.793-0.222,1.249-0.222c0.463,0,0.883,0.074,1.261,0.224
			s0.701,0.362,0.969,0.639c0.269,0.277,0.474,0.605,0.614,0.986S64.546,33.928,64.546,34.387z M63.011,34.387
			c0-0.624-0.137-1.109-0.412-1.457c-0.275-0.347-0.644-0.521-1.107-0.521c-0.299,0-0.562,0.077-0.79,0.232
			c-0.228,0.155-0.403,0.384-0.526,0.687c-0.124,0.303-0.185,0.655-0.185,1.059c0,0.4,0.061,0.749,0.182,1.048
			s0.295,0.527,0.521,0.687s0.492,0.238,0.798,0.238c0.463,0,0.832-0.175,1.107-0.524C62.874,35.486,63.011,35.003,63.011,34.387z"
			/>
		<path fill="#BB2025" d="M67.141,32.123v0.186c0.269-0.355,0.563-0.616,0.882-0.782s0.687-0.249,1.101-0.249
			c0.403,0,0.764,0.088,1.081,0.264c0.318,0.175,0.555,0.424,0.712,0.745c0.101,0.187,0.166,0.389,0.196,0.604
			c0.03,0.217,0.045,0.493,0.045,0.829v2.847c0,0.307-0.07,0.538-0.21,0.694c-0.14,0.157-0.322,0.235-0.546,0.235
			c-0.228,0-0.413-0.08-0.555-0.24c-0.142-0.161-0.213-0.391-0.213-0.689v-2.549c0-0.505-0.07-0.891-0.21-1.157
			c-0.14-0.268-0.419-0.4-0.838-0.4c-0.272,0-0.521,0.081-0.745,0.243s-0.389,0.386-0.493,0.67
			c-0.075,0.228-0.112,0.653-0.112,1.277v1.916c0,0.311-0.072,0.543-0.216,0.697c-0.144,0.155-0.33,0.232-0.558,0.232
			c-0.22,0-0.401-0.08-0.543-0.24c-0.142-0.161-0.213-0.391-0.213-0.689v-4.421c0-0.291,0.063-0.509,0.19-0.652
			s0.301-0.216,0.521-0.216c0.135,0,0.256,0.031,0.364,0.095c0.108,0.064,0.195,0.159,0.261,0.286S67.141,31.94,67.141,32.123z"/>
	</g>
	<g>
		<defs>
			<rect id="SVGID_3_" width="106.091" height="102.195"/>
		</defs>
		<clipPath id="SVGID_4_">
			<use xlink:href="#SVGID_3_"  overflow="visible"/>
		</clipPath>
		
			<path clip-path="url(#SVGID_4_)" fill="none" stroke="#BB2025" stroke-width="1.633" stroke-linejoin="round" stroke-miterlimit="2.985" d="
			M31.177,56.727c0.426-0.517,1.211-1.244,2.356-2.179c1.145-0.937,1.961-1.623,2.448-2.06c0.487-0.438,0.964-1.042,1.432-1.814
			c0.468-0.772,0.702-1.63,0.702-2.573c0-0.601-0.113-1.181-0.337-1.741c-0.224-0.559-0.538-1.051-0.941-1.477
			c-0.404-0.426-0.871-0.761-1.404-1.004c-0.821-0.366-1.814-0.548-2.978-0.548c-0.966,0-1.809,0.143-2.527,0.428
			c-0.719,0.285-1.313,0.66-1.781,1.124c-0.467,0.464-0.819,0.981-1.055,1.552c-0.236,0.57-0.354,1.118-0.354,1.644
			c0,0.433,0.126,0.775,0.377,1.026s0.566,0.376,0.947,0.376c0.433,0,0.762-0.137,0.987-0.411c0.224-0.272,0.426-0.664,0.605-1.175
			c0.178-0.509,0.306-0.82,0.382-0.936c0.57-0.874,1.354-1.313,2.351-1.313c0.471,0,0.907,0.107,1.306,0.32s0.715,0.511,0.947,0.895
			c0.232,0.386,0.348,0.82,0.348,1.308c0,0.449-0.108,0.907-0.325,1.375c-0.217,0.468-0.533,0.924-0.947,1.369
			c-0.415,0.444-0.934,0.889-1.558,1.33c-0.35,0.234-0.932,0.728-1.746,1.477c-0.814,0.75-1.726,1.649-2.738,2.699
			c-0.244,0.259-0.468,0.614-0.673,1.066c-0.206,0.452-0.308,0.816-0.308,1.091c0,0.426,0.159,0.796,0.479,1.111
			c0.319,0.316,0.764,0.475,1.335,0.475h8.398c0.502,0,0.877-0.13,1.124-0.389s0.371-0.574,0.371-0.946
			c0-0.419-0.156-0.75-0.468-0.993c-0.312-0.244-0.764-0.365-1.358-0.365h-5.956C30.808,57.18,30.994,56.932,31.177,56.727z"/>
		
			<path clip-path="url(#SVGID_4_)" fill="none" stroke="#BB2025" stroke-width="1.633" stroke-linejoin="round" stroke-miterlimit="2.985" d="
			M47.471,47.404v6.63h-4.906L47.471,47.404z M47.865,60.008c0.262,0.293,0.607,0.438,1.033,0.438c0.433,0,0.779-0.142,1.038-0.428
			c0.259-0.285,0.388-0.72,0.388-1.306v-2.122h0.696c0.578,0,1.012-0.102,1.301-0.304c0.289-0.201,0.433-0.522,0.433-0.964
			c0-0.54-0.176-0.89-0.53-1.05s-0.824-0.239-1.409-0.239h-0.491v-8.832c0-1.324-0.578-1.985-1.734-1.985
			c-0.358,0-0.664,0.119-0.919,0.359c-0.255,0.239-0.58,0.625-0.976,1.158l-6.047,8.09c-0.168,0.222-0.308,0.407-0.422,0.56
			c-0.115,0.151-0.225,0.31-0.331,0.474c-0.107,0.163-0.187,0.319-0.24,0.468c-0.053,0.148-0.08,0.294-0.08,0.439
			c0,0.563,0.181,1.008,0.542,1.335c0.361,0.327,0.903,0.491,1.626,0.491h5.728v2.122C47.471,59.282,47.603,59.715,47.865,60.008z"
			/>
	</g>
	<g>
		<path fill="#FFFFFF" d="M30.618,57.468h5.956c0.593,0,1.046,0.122,1.358,0.365c0.312,0.244,0.468,0.575,0.468,0.993
			c0,0.373-0.124,0.688-0.371,0.947c-0.248,0.259-0.622,0.388-1.124,0.388h-8.398c-0.57,0-1.015-0.158-1.335-0.474
			c-0.319-0.315-0.479-0.687-0.479-1.112c0-0.274,0.103-0.637,0.308-1.09c0.205-0.452,0.43-0.809,0.673-1.067
			c1.012-1.049,1.925-1.949,2.739-2.698s1.396-1.242,1.746-1.478c0.624-0.441,1.143-0.885,1.558-1.329
			c0.415-0.445,0.73-0.901,0.947-1.369s0.325-0.927,0.325-1.375c0-0.487-0.116-0.923-0.348-1.307
			c-0.232-0.385-0.548-0.683-0.947-0.896c-0.399-0.213-0.835-0.319-1.307-0.319c-0.997,0-1.78,0.438-2.351,1.313
			c-0.076,0.114-0.204,0.426-0.382,0.936s-0.38,0.901-0.605,1.176c-0.224,0.273-0.553,0.41-0.987,0.41
			c-0.38,0-0.696-0.125-0.947-0.376s-0.376-0.594-0.376-1.027c0-0.524,0.118-1.072,0.354-1.643c0.235-0.571,0.587-1.088,1.055-1.553
			c0.468-0.464,1.062-0.838,1.78-1.123c0.719-0.286,1.561-0.429,2.527-0.429c1.164,0,2.157,0.183,2.978,0.548
			c0.533,0.244,1,0.578,1.404,1.004c0.403,0.427,0.717,0.919,0.941,1.479c0.224,0.559,0.336,1.139,0.336,1.739
			c0,0.943-0.234,1.802-0.702,2.573c-0.468,0.772-0.945,1.377-1.432,1.814s-1.303,1.124-2.448,2.06s-1.93,1.662-2.356,2.18
			C30.995,56.932,30.808,57.18,30.618,57.468z"/>
		<path fill="#FFFFFF" d="M47.472,58.712V56.59h-5.729c-0.723,0-1.265-0.164-1.626-0.491s-0.542-0.771-0.542-1.335
			c0-0.145,0.027-0.291,0.08-0.439s0.133-0.304,0.24-0.468c0.106-0.163,0.217-0.321,0.331-0.474
			c0.114-0.151,0.255-0.338,0.422-0.559l6.047-8.09c0.396-0.533,0.721-0.919,0.976-1.158c0.254-0.24,0.561-0.359,0.918-0.359
			c1.156,0,1.734,0.661,1.734,1.985v8.831h0.491c0.585,0,1.055,0.08,1.409,0.24c0.354,0.159,0.53,0.51,0.53,1.05
			c0,0.441-0.145,0.763-0.434,0.964c-0.289,0.202-0.723,0.303-1.301,0.303h-0.696v2.122c0,0.586-0.129,1.021-0.388,1.307
			s-0.604,0.428-1.038,0.428c-0.426,0-0.771-0.146-1.033-0.439C47.603,59.714,47.472,59.282,47.472,58.712z M42.565,54.033h4.907
			v-6.629L42.565,54.033z"/>
	</g>
	<polygon fill="none" stroke="#BB2025" stroke-width="1.633" stroke-linejoin="round" stroke-miterlimit="2.985" points="
		59.955,53.988 63.435,57.469 65.535,55.347 62.076,51.889 65.512,48.432 63.457,46.354 60,49.813 56.543,46.354 54.42,48.454 
		57.877,51.935 54.443,55.369 56.52,57.445 	"/>
	<g>
		<path fill="#FFFFFF" d="M56.52,57.445l-2.077-2.076l3.435-3.436l-3.458-3.479l2.123-2.1L60,49.812l3.457-3.457l2.054,2.076
			l-3.435,3.458l3.458,3.457l-2.1,2.122l-3.48-3.479L56.52,57.445z"/>
	</g>
	<g>
		<defs>
			<rect id="SVGID_5_" width="106.091" height="102.195"/>
		</defs>
		<clipPath id="SVGID_6_">
			<use xlink:href="#SVGID_5_"  overflow="visible"/>
		</clipPath>
		
			<path clip-path="url(#SVGID_6_)" fill="none" stroke="#BB2025" stroke-width="1.633" stroke-linejoin="round" stroke-miterlimit="2.985" d="
			M69.037,43.821c-0.335,0.152-0.502,0.491-0.502,1.017c0,0.493,0.158,0.856,0.473,1.089c0.316,0.231,0.795,0.348,1.434,0.348h6.104
			c-0.957,1.217-1.785,2.44-2.481,3.669s-1.276,2.427-1.74,3.594c-0.464,1.168-0.798,2.17-1.004,3.007
			c-0.205,0.838-0.308,1.499-0.308,1.985c0,0.632,0.141,1.109,0.422,1.432c0.281,0.324,0.654,0.485,1.117,0.485
			c0.488,0,0.877-0.149,1.17-0.45s0.52-0.839,0.68-1.614c0.068-0.335,0.148-0.818,0.24-1.449c0.091-0.632,0.175-1.146,0.251-1.541
			c0.075-0.396,0.204-0.894,0.388-1.494c0.434-1.362,0.911-2.514,1.432-3.458c0.521-0.943,1.027-1.732,1.518-2.368
			c0.49-0.635,0.928-1.215,1.313-1.74c0.385-0.524,0.576-0.946,0.576-1.266c0-0.525-0.164-0.902-0.49-1.13
			c-0.328-0.229-0.856-0.342-1.586-0.342h-7.6C69.84,43.594,69.373,43.669,69.037,43.821z"/>
	</g>
	<g>
		<path fill="#FFFFFF" d="M70.441,43.593h7.599c0.73,0,1.259,0.114,1.586,0.343c0.327,0.228,0.491,0.604,0.491,1.129
			c0,0.32-0.192,0.742-0.577,1.267c-0.384,0.525-0.821,1.105-1.312,1.74c-0.491,0.636-0.997,1.425-1.518,2.368
			s-0.999,2.096-1.432,3.457c-0.183,0.602-0.312,1.1-0.388,1.495c-0.076,0.396-0.16,0.909-0.251,1.54
			c-0.091,0.632-0.171,1.115-0.24,1.449c-0.16,0.776-0.386,1.314-0.679,1.615c-0.293,0.3-0.683,0.45-1.169,0.45
			c-0.464,0-0.837-0.161-1.118-0.484c-0.282-0.323-0.422-0.801-0.422-1.433c0-0.486,0.103-1.148,0.308-1.985s0.54-1.839,1.004-3.007
			c0.464-1.168,1.044-2.365,1.74-3.594c0.696-1.229,1.523-2.452,2.482-3.669h-6.104c-0.639,0-1.117-0.116-1.432-0.348
			c-0.316-0.232-0.474-0.596-0.474-1.09c0-0.525,0.167-0.863,0.502-1.016C69.372,43.669,69.84,43.593,70.441,43.593z"/>
	</g>
	<g>
		<path fill="#BB2025" d="M40.844,67.347h-0.321v1.455c0,0.192-0.042,0.333-0.127,0.424s-0.195,0.136-0.331,0.136
			c-0.146,0-0.26-0.047-0.34-0.142c-0.081-0.095-0.121-0.234-0.121-0.418v-3.485c0-0.198,0.044-0.341,0.133-0.43
			s0.232-0.133,0.43-0.133h1.493c0.206,0,0.382,0.009,0.528,0.026c0.146,0.018,0.278,0.053,0.396,0.106
			c0.142,0.06,0.268,0.146,0.377,0.257s0.192,0.24,0.249,0.388s0.085,0.303,0.085,0.468c0,0.338-0.096,0.608-0.286,0.81
			c-0.19,0.202-0.479,0.346-0.867,0.43c0.163,0.087,0.318,0.215,0.467,0.384c0.148,0.169,0.28,0.349,0.397,0.539
			c0.116,0.19,0.207,0.362,0.272,0.516s0.097,0.26,0.097,0.317c0,0.06-0.019,0.118-0.057,0.177c-0.038,0.06-0.09,0.105-0.156,0.14
			c-0.066,0.034-0.143,0.051-0.229,0.051c-0.103,0-0.189-0.024-0.259-0.072c-0.07-0.049-0.13-0.11-0.181-0.185
			c-0.05-0.073-0.119-0.183-0.206-0.327l-0.368-0.612c-0.132-0.224-0.25-0.396-0.354-0.513s-0.21-0.197-0.317-0.241
			C41.142,67.368,41.006,67.347,40.844,67.347z M41.369,65.443h-0.847v1.245h0.822c0.221,0,0.406-0.02,0.556-0.058
			s0.266-0.103,0.345-0.194s0.119-0.218,0.119-0.379c0-0.125-0.032-0.236-0.096-0.332c-0.063-0.096-0.152-0.167-0.266-0.215
			C41.896,65.466,41.684,65.443,41.369,65.443z"/>
		<path fill="#BB2025" d="M46.307,67.854h-1.65c0.002,0.191,0.041,0.36,0.116,0.507s0.175,0.256,0.3,0.33
			c0.125,0.074,0.262,0.111,0.413,0.111c0.101,0,0.193-0.012,0.276-0.035s0.164-0.061,0.243-0.111
			c0.078-0.051,0.15-0.104,0.216-0.162s0.151-0.136,0.256-0.235c0.043-0.037,0.105-0.056,0.186-0.056
			c0.086,0,0.156,0.024,0.21,0.071c0.054,0.048,0.081,0.114,0.081,0.201c0,0.076-0.03,0.165-0.09,0.268
			c-0.06,0.102-0.15,0.199-0.271,0.293c-0.12,0.094-0.272,0.172-0.454,0.233s-0.392,0.093-0.629,0.093
			c-0.542,0-0.963-0.154-1.264-0.464c-0.301-0.309-0.451-0.728-0.451-1.257c0-0.25,0.037-0.481,0.111-0.694
			c0.074-0.213,0.183-0.396,0.325-0.549c0.142-0.152,0.317-0.269,0.525-0.351c0.208-0.081,0.439-0.122,0.692-0.122
			c0.33,0,0.612,0.069,0.848,0.209c0.236,0.139,0.413,0.318,0.53,0.539c0.118,0.221,0.176,0.445,0.176,0.674
			c0,0.212-0.061,0.35-0.182,0.412C46.698,67.822,46.527,67.854,46.307,67.854z M44.656,67.374h1.53
			c-0.021-0.288-0.098-0.504-0.233-0.647c-0.135-0.143-0.313-0.215-0.533-0.215c-0.21,0-0.383,0.073-0.518,0.219
			C44.767,66.875,44.685,67.09,44.656,67.374z"/>
		<path fill="#BB2025" d="M49.845,68.886c-0.204,0.158-0.401,0.277-0.592,0.356c-0.19,0.079-0.404,0.119-0.641,0.119
			c-0.216,0-0.406-0.043-0.57-0.128c-0.164-0.086-0.29-0.201-0.378-0.348s-0.133-0.305-0.133-0.477c0-0.23,0.073-0.427,0.219-0.59
			c0.146-0.163,0.347-0.271,0.603-0.327c0.054-0.013,0.187-0.041,0.399-0.084c0.212-0.043,0.394-0.083,0.545-0.119
			s0.315-0.079,0.493-0.131c-0.01-0.223-0.055-0.386-0.134-0.49c-0.079-0.104-0.244-0.156-0.493-0.156
			c-0.214,0-0.375,0.03-0.484,0.09c-0.108,0.06-0.201,0.149-0.278,0.27c-0.078,0.119-0.132,0.198-0.164,0.236
			s-0.101,0.057-0.206,0.057c-0.095,0-0.177-0.03-0.246-0.091s-0.104-0.139-0.104-0.233c0-0.148,0.053-0.293,0.158-0.433
			c0.105-0.141,0.269-0.256,0.491-0.347c0.223-0.09,0.5-0.136,0.832-0.136c0.371,0,0.662,0.044,0.875,0.132
			c0.212,0.087,0.362,0.226,0.45,0.415c0.087,0.189,0.131,0.441,0.131,0.754c0,0.198-0.001,0.366-0.002,0.504
			c-0.001,0.139-0.002,0.292-0.004,0.461c0,0.158,0.026,0.324,0.079,0.496c0.053,0.172,0.079,0.282,0.079,0.332
			c0,0.086-0.041,0.165-0.122,0.236c-0.082,0.071-0.174,0.106-0.277,0.106c-0.086,0-0.172-0.041-0.256-0.122
			S49.94,69.04,49.845,68.886z M49.79,67.665c-0.124,0.045-0.303,0.093-0.539,0.144s-0.399,0.088-0.49,0.111
			c-0.091,0.023-0.177,0.07-0.26,0.139c-0.083,0.069-0.124,0.166-0.124,0.289c0,0.128,0.048,0.236,0.146,0.326
			c0.097,0.09,0.223,0.135,0.38,0.135c0.167,0,0.321-0.037,0.462-0.11s0.245-0.167,0.311-0.282c0.076-0.128,0.114-0.338,0.114-0.631
			V67.665z"/>
		<path fill="#BB2025" d="M51.474,68.849v-3.659c0-0.169,0.038-0.297,0.113-0.383c0.075-0.087,0.177-0.13,0.305-0.13
			c0.127,0,0.23,0.043,0.309,0.128c0.078,0.086,0.117,0.214,0.117,0.385v3.659c0,0.171-0.04,0.299-0.119,0.385
			c-0.08,0.085-0.182,0.128-0.308,0.128c-0.124,0-0.224-0.044-0.301-0.133C51.512,69.14,51.474,69.014,51.474,68.849z"/>
		<path fill="#BB2025" d="M55.729,65.232v3.298h1.86c0.148,0,0.262,0.036,0.342,0.108c0.079,0.072,0.119,0.162,0.119,0.271
			c0,0.111-0.039,0.201-0.117,0.271c-0.079,0.069-0.193,0.104-0.343,0.104h-2.215c-0.2,0-0.344-0.044-0.431-0.133
			c-0.088-0.089-0.131-0.231-0.131-0.43v-3.489c0-0.185,0.042-0.324,0.125-0.417s0.193-0.139,0.329-0.139
			c0.138,0,0.25,0.046,0.335,0.138S55.729,65.045,55.729,65.232z"/>
		<path fill="#BB2025" d="M59.021,65.539c-0.118,0-0.218-0.036-0.301-0.108s-0.125-0.174-0.125-0.306
			c0-0.12,0.043-0.218,0.128-0.296c0.085-0.077,0.185-0.115,0.298-0.115c0.109,0,0.206,0.035,0.291,0.104
			c0.084,0.07,0.126,0.173,0.126,0.307c0,0.13-0.041,0.23-0.124,0.304S59.134,65.539,59.021,65.539z M59.438,66.41v2.438
			c0,0.169-0.04,0.297-0.121,0.383c-0.08,0.087-0.182,0.13-0.306,0.13s-0.224-0.044-0.301-0.133
			c-0.078-0.089-0.116-0.215-0.116-0.38v-2.414c0-0.167,0.039-0.292,0.116-0.377c0.077-0.084,0.178-0.126,0.301-0.126
			s0.226,0.042,0.306,0.126C59.397,66.143,59.438,66.26,59.438,66.41z"/>
		<path fill="#BB2025" d="M60.905,66.457l0.683,1.915l0.735-1.999c0.058-0.16,0.114-0.274,0.17-0.342
			c0.056-0.066,0.14-0.1,0.253-0.1c0.107,0,0.198,0.036,0.273,0.107c0.075,0.072,0.113,0.156,0.113,0.251
			c0,0.037-0.007,0.08-0.02,0.13c-0.014,0.049-0.029,0.096-0.046,0.139s-0.038,0.093-0.06,0.148l-0.81,2.009
			c-0.022,0.058-0.052,0.131-0.088,0.219c-0.036,0.089-0.076,0.165-0.121,0.228s-0.099,0.111-0.164,0.146s-0.144,0.053-0.236,0.053
			c-0.12,0-0.215-0.027-0.286-0.082c-0.071-0.055-0.124-0.114-0.158-0.179c-0.034-0.065-0.091-0.193-0.171-0.385l-0.803-1.987
			c-0.019-0.05-0.038-0.099-0.058-0.148c-0.02-0.05-0.036-0.1-0.049-0.151c-0.013-0.052-0.02-0.096-0.02-0.133
			c0-0.058,0.018-0.115,0.053-0.172c0.035-0.057,0.083-0.103,0.145-0.139c0.062-0.036,0.129-0.054,0.201-0.054
			c0.14,0,0.236,0.04,0.289,0.12C60.783,66.132,60.841,66.267,60.905,66.457z"/>
		<path fill="#BB2025" d="M66.012,67.854h-1.65c0.002,0.191,0.041,0.36,0.116,0.507s0.175,0.256,0.3,0.33
			c0.125,0.074,0.262,0.111,0.413,0.111c0.101,0,0.193-0.012,0.276-0.035s0.164-0.061,0.243-0.111
			c0.078-0.051,0.15-0.104,0.216-0.162s0.151-0.136,0.256-0.235c0.043-0.037,0.105-0.056,0.186-0.056
			c0.086,0,0.156,0.024,0.21,0.071c0.054,0.048,0.081,0.114,0.081,0.201c0,0.076-0.03,0.165-0.09,0.268
			c-0.06,0.102-0.15,0.199-0.271,0.293c-0.12,0.094-0.272,0.172-0.454,0.233s-0.392,0.093-0.629,0.093
			c-0.542,0-0.963-0.154-1.264-0.464C63.65,68.589,63.5,68.17,63.5,67.641c0-0.25,0.037-0.481,0.111-0.694
			c0.074-0.213,0.183-0.396,0.325-0.549c0.142-0.152,0.317-0.269,0.525-0.351c0.208-0.081,0.439-0.122,0.692-0.122
			c0.33,0,0.612,0.069,0.848,0.209c0.236,0.139,0.413,0.318,0.53,0.539c0.118,0.221,0.176,0.445,0.176,0.674
			c0,0.212-0.061,0.35-0.182,0.412C66.403,67.822,66.232,67.854,66.012,67.854z M64.361,67.374h1.53
			c-0.021-0.288-0.098-0.504-0.233-0.647c-0.135-0.143-0.313-0.215-0.533-0.215c-0.21,0-0.383,0.073-0.518,0.219
			C64.472,66.875,64.39,67.09,64.361,67.374z"/>
	</g>
	<g>
		<path fill="#BB2025" d="M28.263,72.826v3.298h1.86c0.148,0,0.262,0.036,0.342,0.108c0.079,0.072,0.119,0.162,0.119,0.271
			c0,0.111-0.039,0.201-0.117,0.271c-0.079,0.069-0.193,0.104-0.343,0.104h-2.215c-0.2,0-0.344-0.044-0.431-0.133
			c-0.088-0.089-0.131-0.231-0.131-0.43v-3.489c0-0.185,0.042-0.324,0.125-0.417s0.193-0.139,0.329-0.139
			c0.138,0,0.25,0.046,0.335,0.138S28.263,72.639,28.263,72.826z"/>
		<path fill="#BB2025" d="M33.483,75.447h-1.65c0.002,0.191,0.041,0.36,0.116,0.507s0.175,0.256,0.3,0.33
			c0.125,0.074,0.262,0.111,0.413,0.111c0.101,0,0.193-0.012,0.276-0.035s0.164-0.061,0.243-0.111
			c0.078-0.051,0.15-0.104,0.216-0.162s0.151-0.136,0.256-0.235c0.043-0.037,0.105-0.056,0.186-0.056
			c0.086,0,0.156,0.024,0.21,0.071c0.054,0.048,0.081,0.114,0.081,0.201c0,0.076-0.03,0.165-0.09,0.268
			c-0.06,0.102-0.15,0.199-0.271,0.293c-0.12,0.094-0.272,0.172-0.454,0.233s-0.392,0.093-0.629,0.093
			c-0.542,0-0.963-0.154-1.264-0.464c-0.301-0.309-0.451-0.728-0.451-1.257c0-0.25,0.037-0.481,0.111-0.694
			c0.074-0.213,0.183-0.396,0.325-0.549c0.142-0.152,0.317-0.269,0.525-0.351c0.208-0.081,0.439-0.122,0.692-0.122
			c0.33,0,0.612,0.069,0.848,0.209c0.236,0.139,0.413,0.318,0.53,0.539c0.118,0.221,0.176,0.445,0.176,0.674
			c0,0.212-0.061,0.35-0.182,0.412C33.875,75.416,33.703,75.447,33.483,75.447z M31.833,74.968h1.53
			c-0.021-0.288-0.098-0.504-0.233-0.647c-0.135-0.143-0.313-0.215-0.533-0.215c-0.21,0-0.383,0.073-0.518,0.219
			C31.943,74.469,31.861,74.684,31.833,74.968z"/>
		<path fill="#BB2025" d="M37.021,76.479c-0.204,0.158-0.401,0.277-0.592,0.356c-0.19,0.079-0.404,0.119-0.641,0.119
			c-0.216,0-0.406-0.043-0.57-0.128c-0.164-0.086-0.29-0.201-0.378-0.348s-0.133-0.305-0.133-0.477c0-0.23,0.073-0.427,0.219-0.59
			c0.146-0.163,0.347-0.271,0.603-0.327c0.054-0.013,0.187-0.041,0.399-0.084c0.212-0.043,0.394-0.083,0.545-0.119
			s0.315-0.079,0.493-0.131c-0.01-0.223-0.055-0.386-0.134-0.49c-0.079-0.104-0.244-0.156-0.493-0.156
			c-0.214,0-0.375,0.03-0.484,0.09c-0.108,0.06-0.201,0.149-0.278,0.27c-0.078,0.119-0.132,0.198-0.164,0.236
			s-0.101,0.057-0.206,0.057c-0.095,0-0.177-0.03-0.246-0.091s-0.104-0.139-0.104-0.233c0-0.148,0.053-0.293,0.158-0.433
			c0.105-0.141,0.269-0.256,0.491-0.347c0.223-0.09,0.5-0.136,0.832-0.136c0.371,0,0.662,0.044,0.875,0.132
			c0.212,0.087,0.362,0.226,0.45,0.415c0.087,0.189,0.131,0.441,0.131,0.754c0,0.198-0.001,0.366-0.002,0.504
			c-0.001,0.139-0.002,0.292-0.004,0.461c0,0.158,0.026,0.324,0.079,0.496c0.053,0.172,0.079,0.282,0.079,0.332
			c0,0.086-0.041,0.165-0.122,0.236c-0.082,0.071-0.174,0.106-0.277,0.106c-0.086,0-0.172-0.041-0.256-0.122
			S37.116,76.634,37.021,76.479z M36.965,75.259c-0.124,0.045-0.303,0.093-0.539,0.144s-0.399,0.088-0.49,0.111
			c-0.091,0.023-0.177,0.07-0.26,0.139c-0.083,0.069-0.124,0.166-0.124,0.289c0,0.128,0.048,0.236,0.146,0.326
			c0.097,0.09,0.223,0.135,0.38,0.135c0.167,0,0.321-0.037,0.462-0.11s0.245-0.167,0.311-0.282c0.076-0.128,0.114-0.338,0.114-0.631
			V75.259z"/>
		<path fill="#BB2025" d="M39.487,75.737v0.705c0,0.171-0.041,0.299-0.121,0.385c-0.081,0.085-0.183,0.128-0.306,0.128
			c-0.122,0-0.221-0.043-0.3-0.13c-0.078-0.086-0.117-0.214-0.117-0.383v-2.349c0-0.379,0.137-0.568,0.411-0.568
			c0.14,0,0.241,0.044,0.303,0.133c0.062,0.088,0.096,0.219,0.102,0.393c0.101-0.174,0.204-0.305,0.311-0.393
			c0.106-0.089,0.248-0.133,0.425-0.133s0.349,0.044,0.516,0.133c0.167,0.088,0.25,0.206,0.25,0.352
			c0,0.104-0.035,0.188-0.106,0.255c-0.071,0.067-0.148,0.101-0.23,0.101c-0.031,0-0.106-0.019-0.224-0.057
			c-0.119-0.038-0.223-0.058-0.314-0.058c-0.124,0-0.225,0.032-0.303,0.098c-0.078,0.064-0.139,0.161-0.182,0.289
			c-0.043,0.128-0.073,0.279-0.09,0.456C39.495,75.27,39.487,75.484,39.487,75.737z"/>
		<path fill="#BB2025" d="M42.188,73.991v0.103c0.148-0.196,0.311-0.34,0.487-0.432c0.176-0.091,0.378-0.137,0.607-0.137
			c0.223,0,0.421,0.048,0.597,0.145c0.175,0.097,0.306,0.234,0.393,0.411c0.056,0.104,0.091,0.215,0.108,0.334
			s0.025,0.271,0.025,0.457v1.57c0,0.169-0.039,0.297-0.116,0.383c-0.077,0.087-0.177,0.13-0.301,0.13
			c-0.125,0-0.228-0.044-0.306-0.133c-0.079-0.089-0.118-0.215-0.118-0.38v-1.406c0-0.278-0.039-0.491-0.116-0.638
			c-0.077-0.147-0.231-0.222-0.462-0.222c-0.15,0-0.288,0.045-0.411,0.135s-0.214,0.213-0.272,0.369
			c-0.041,0.126-0.062,0.36-0.062,0.705v1.057c0,0.171-0.04,0.299-0.119,0.385c-0.08,0.085-0.182,0.128-0.308,0.128
			c-0.122,0-0.221-0.044-0.3-0.133c-0.078-0.089-0.117-0.215-0.117-0.38v-2.438c0-0.16,0.035-0.28,0.105-0.36
			c0.07-0.079,0.166-0.118,0.288-0.118c0.074,0,0.141,0.018,0.201,0.052c0.06,0.035,0.107,0.088,0.144,0.158
			C42.17,73.805,42.188,73.891,42.188,73.991z"/>
		<path fill="#BB2025" d="M45.671,73.133c-0.118,0-0.218-0.036-0.301-0.108s-0.125-0.174-0.125-0.306
			c0-0.12,0.043-0.218,0.128-0.296c0.085-0.077,0.185-0.115,0.298-0.115c0.109,0,0.206,0.035,0.291,0.104
			c0.084,0.07,0.126,0.173,0.126,0.307c0,0.13-0.041,0.23-0.124,0.304S45.784,73.133,45.671,73.133z M46.088,74.004v2.438
			c0,0.169-0.04,0.297-0.121,0.383c-0.08,0.087-0.182,0.13-0.306,0.13s-0.224-0.044-0.301-0.133
			c-0.078-0.089-0.116-0.215-0.116-0.38v-2.414c0-0.167,0.039-0.292,0.116-0.377c0.077-0.084,0.178-0.126,0.301-0.126
			s0.226,0.042,0.306,0.126C46.048,73.736,46.088,73.854,46.088,74.004z"/>
		<path fill="#BB2025" d="M47.726,73.991v0.103c0.148-0.196,0.311-0.34,0.487-0.432c0.176-0.091,0.378-0.137,0.607-0.137
			c0.223,0,0.421,0.048,0.597,0.145c0.175,0.097,0.306,0.234,0.393,0.411c0.056,0.104,0.091,0.215,0.108,0.334
			s0.025,0.271,0.025,0.457v1.57c0,0.169-0.039,0.297-0.116,0.383c-0.077,0.087-0.177,0.13-0.301,0.13
			c-0.125,0-0.228-0.044-0.306-0.133c-0.079-0.089-0.118-0.215-0.118-0.38v-1.406c0-0.278-0.039-0.491-0.116-0.638
			c-0.077-0.147-0.231-0.222-0.462-0.222c-0.15,0-0.288,0.045-0.411,0.135s-0.214,0.213-0.272,0.369
			c-0.041,0.126-0.062,0.36-0.062,0.705v1.057c0,0.171-0.04,0.299-0.119,0.385c-0.08,0.085-0.182,0.128-0.308,0.128
			c-0.122,0-0.221-0.044-0.3-0.133c-0.078-0.089-0.117-0.215-0.117-0.38v-2.438c0-0.16,0.035-0.28,0.105-0.36
			c0.07-0.079,0.166-0.118,0.288-0.118c0.074,0,0.141,0.018,0.201,0.052c0.06,0.035,0.107,0.088,0.144,0.158
			C47.708,73.805,47.726,73.891,47.726,73.991z"/>
		<path fill="#BB2025" d="M53.885,74.143v2.451c0,0.28-0.03,0.521-0.09,0.723c-0.06,0.202-0.156,0.369-0.288,0.501
			s-0.304,0.229-0.518,0.294c-0.213,0.063-0.479,0.096-0.795,0.096c-0.291,0-0.55-0.041-0.779-0.122
			c-0.229-0.082-0.405-0.187-0.528-0.315c-0.124-0.129-0.186-0.261-0.186-0.397c0-0.103,0.035-0.187,0.105-0.252
			c0.07-0.064,0.154-0.097,0.253-0.097c0.124,0,0.232,0.055,0.325,0.163c0.045,0.056,0.092,0.112,0.14,0.169
			c0.049,0.057,0.102,0.104,0.161,0.146c0.059,0.04,0.129,0.069,0.211,0.089s0.177,0.029,0.284,0.029
			c0.219,0,0.388-0.03,0.508-0.091c0.121-0.061,0.205-0.146,0.253-0.255c0.049-0.109,0.077-0.226,0.085-0.351
			c0.008-0.125,0.015-0.325,0.019-0.602c-0.129,0.182-0.279,0.319-0.449,0.414s-0.373,0.143-0.607,0.143
			c-0.282,0-0.529-0.072-0.74-0.217c-0.211-0.144-0.374-0.346-0.487-0.605s-0.17-0.56-0.17-0.899c0-0.253,0.035-0.481,0.104-0.686
			c0.069-0.204,0.167-0.376,0.295-0.517c0.127-0.14,0.275-0.245,0.442-0.316s0.35-0.106,0.55-0.106c0.239,0,0.446,0.046,0.621,0.138
			c0.175,0.092,0.338,0.235,0.488,0.431v-0.114c0-0.146,0.036-0.26,0.108-0.34s0.165-0.12,0.278-0.12
			c0.163,0,0.271,0.053,0.324,0.159C53.858,73.79,53.885,73.943,53.885,74.143z M51.44,75.212c0,0.343,0.075,0.601,0.224,0.776
			c0.149,0.175,0.343,0.263,0.58,0.263c0.14,0,0.272-0.038,0.397-0.113s0.226-0.188,0.305-0.34c0.078-0.151,0.117-0.335,0.117-0.552
			c0-0.344-0.076-0.611-0.227-0.804c-0.151-0.191-0.351-0.287-0.598-0.287c-0.241,0-0.434,0.092-0.579,0.275
			C51.513,74.614,51.44,74.874,51.44,75.212z"/>
		<path fill="#BB2025" d="M56.747,73.133c-0.118,0-0.218-0.036-0.301-0.108s-0.125-0.174-0.125-0.306
			c0-0.12,0.043-0.218,0.128-0.296c0.085-0.077,0.185-0.115,0.298-0.115c0.109,0,0.206,0.035,0.291,0.104
			c0.084,0.07,0.126,0.173,0.126,0.307c0,0.13-0.041,0.23-0.124,0.304S56.86,73.133,56.747,73.133z M57.164,74.004v2.438
			c0,0.169-0.04,0.297-0.121,0.383c-0.08,0.087-0.182,0.13-0.306,0.13s-0.224-0.044-0.301-0.133
			c-0.078-0.089-0.116-0.215-0.116-0.38v-2.414c0-0.167,0.039-0.292,0.116-0.377c0.077-0.084,0.178-0.126,0.301-0.126
			s0.226,0.042,0.306,0.126C57.124,73.736,57.164,73.854,57.164,74.004z"/>
		<path fill="#BB2025" d="M58.801,73.991v0.103c0.148-0.196,0.311-0.34,0.487-0.432c0.176-0.091,0.378-0.137,0.607-0.137
			c0.223,0,0.421,0.048,0.597,0.145c0.175,0.097,0.306,0.234,0.393,0.411c0.056,0.104,0.091,0.215,0.108,0.334
			s0.025,0.271,0.025,0.457v1.57c0,0.169-0.039,0.297-0.116,0.383c-0.077,0.087-0.177,0.13-0.301,0.13
			c-0.125,0-0.228-0.044-0.306-0.133c-0.079-0.089-0.118-0.215-0.118-0.38v-1.406c0-0.278-0.039-0.491-0.116-0.638
			c-0.077-0.147-0.231-0.222-0.462-0.222c-0.15,0-0.288,0.045-0.411,0.135s-0.214,0.213-0.272,0.369
			c-0.041,0.126-0.062,0.36-0.062,0.705v1.057c0,0.171-0.04,0.299-0.119,0.385c-0.08,0.085-0.182,0.128-0.308,0.128
			c-0.122,0-0.221-0.044-0.3-0.133c-0.078-0.089-0.117-0.215-0.117-0.38v-2.438c0-0.16,0.035-0.28,0.105-0.36
			c0.07-0.079,0.166-0.118,0.288-0.118c0.074,0,0.141,0.018,0.201,0.052c0.06,0.035,0.107,0.088,0.144,0.158
			C58.783,73.805,58.801,73.891,58.801,73.991z"/>
		<path fill="#BB2025" d="M66.156,75.852c0,0.233-0.057,0.433-0.17,0.599s-0.281,0.291-0.502,0.377
			c-0.222,0.085-0.491,0.128-0.808,0.128c-0.303,0-0.563-0.046-0.779-0.139s-0.376-0.209-0.479-0.348
			c-0.103-0.14-0.154-0.279-0.154-0.419c0-0.093,0.033-0.172,0.099-0.238c0.066-0.065,0.149-0.099,0.25-0.099
			c0.088,0,0.156,0.021,0.204,0.064c0.047,0.044,0.092,0.104,0.136,0.183c0.086,0.15,0.19,0.263,0.311,0.337
			s0.285,0.111,0.493,0.111c0.169,0,0.308-0.037,0.416-0.112c0.108-0.075,0.162-0.162,0.162-0.259c0-0.148-0.056-0.256-0.168-0.324
			s-0.297-0.133-0.555-0.194c-0.291-0.072-0.527-0.148-0.709-0.228c-0.183-0.079-0.328-0.184-0.438-0.313s-0.164-0.29-0.164-0.479
			c0-0.169,0.05-0.328,0.151-0.479c0.101-0.15,0.25-0.271,0.446-0.36s0.434-0.134,0.712-0.134c0.218,0,0.415,0.022,0.589,0.067
			c0.174,0.046,0.319,0.106,0.436,0.183s0.205,0.16,0.266,0.253c0.061,0.093,0.091,0.184,0.091,0.272
			c0,0.097-0.032,0.176-0.097,0.238c-0.065,0.062-0.157,0.092-0.277,0.092c-0.086,0-0.16-0.024-0.221-0.074
			c-0.061-0.049-0.13-0.123-0.208-0.222c-0.064-0.083-0.139-0.148-0.226-0.198c-0.087-0.049-0.204-0.074-0.353-0.074
			c-0.152,0-0.279,0.032-0.38,0.098c-0.101,0.064-0.152,0.146-0.152,0.242c0,0.089,0.037,0.161,0.111,0.218s0.174,0.104,0.3,0.141
			c0.126,0.037,0.299,0.083,0.519,0.137c0.262,0.063,0.476,0.14,0.642,0.229c0.166,0.088,0.292,0.193,0.377,0.313
			S66.156,75.697,66.156,75.852z"/>
		<path fill="#BB2025" d="M69.676,75.302v1.122c0,0.177-0.04,0.31-0.121,0.398c-0.08,0.089-0.187,0.133-0.318,0.133
			c-0.127,0-0.231-0.044-0.311-0.133c-0.079-0.089-0.119-0.222-0.119-0.398v-1.345c0-0.212-0.007-0.377-0.022-0.494
			c-0.014-0.117-0.053-0.214-0.117-0.289s-0.165-0.112-0.303-0.112c-0.276,0-0.458,0.095-0.545,0.284
			c-0.088,0.189-0.131,0.461-0.131,0.815v1.141c0,0.175-0.04,0.308-0.119,0.396c-0.08,0.09-0.184,0.135-0.314,0.135
			c-0.127,0-0.232-0.045-0.313-0.135c-0.082-0.089-0.122-0.222-0.122-0.396V74.01c0-0.158,0.037-0.278,0.11-0.361
			c0.073-0.082,0.169-0.123,0.289-0.123c0.115,0,0.211,0.038,0.289,0.115c0.078,0.077,0.116,0.185,0.116,0.32v0.08
			c0.146-0.175,0.303-0.304,0.47-0.387c0.167-0.082,0.352-0.123,0.556-0.123c0.212,0,0.395,0.042,0.547,0.127
			c0.152,0.084,0.278,0.212,0.377,0.383c0.142-0.173,0.294-0.301,0.458-0.385c0.163-0.083,0.343-0.125,0.541-0.125
			c0.231,0,0.43,0.045,0.597,0.136s0.292,0.221,0.374,0.39c0.072,0.152,0.108,0.393,0.108,0.72v1.647c0,0.177-0.04,0.31-0.121,0.398
			c-0.08,0.089-0.187,0.133-0.318,0.133c-0.127,0-0.232-0.045-0.313-0.135c-0.082-0.089-0.122-0.222-0.122-0.396v-1.419
			c0-0.181-0.008-0.326-0.023-0.436c-0.016-0.109-0.057-0.201-0.125-0.274c-0.068-0.074-0.171-0.111-0.309-0.111
			c-0.111,0-0.217,0.032-0.316,0.099c-0.1,0.065-0.178,0.154-0.233,0.266C69.707,74.69,69.676,74.941,69.676,75.302z"/>
		<path fill="#BB2025" d="M74.602,76.479c-0.204,0.158-0.401,0.277-0.592,0.356c-0.19,0.079-0.404,0.119-0.641,0.119
			c-0.216,0-0.406-0.043-0.57-0.128c-0.164-0.086-0.29-0.201-0.378-0.348s-0.133-0.305-0.133-0.477c0-0.23,0.073-0.427,0.219-0.59
			c0.146-0.163,0.347-0.271,0.603-0.327c0.054-0.013,0.187-0.041,0.399-0.084c0.212-0.043,0.394-0.083,0.545-0.119
			s0.315-0.079,0.493-0.131c-0.01-0.223-0.055-0.386-0.134-0.49c-0.079-0.104-0.244-0.156-0.493-0.156
			c-0.214,0-0.375,0.03-0.484,0.09c-0.108,0.06-0.201,0.149-0.278,0.27c-0.078,0.119-0.132,0.198-0.164,0.236
			s-0.101,0.057-0.206,0.057c-0.095,0-0.177-0.03-0.246-0.091s-0.104-0.139-0.104-0.233c0-0.148,0.053-0.293,0.158-0.433
			c0.105-0.141,0.269-0.256,0.491-0.347c0.223-0.09,0.5-0.136,0.832-0.136c0.371,0,0.662,0.044,0.875,0.132
			c0.212,0.087,0.362,0.226,0.45,0.415c0.087,0.189,0.131,0.441,0.131,0.754c0,0.198-0.001,0.366-0.002,0.504
			c-0.001,0.139-0.002,0.292-0.004,0.461c0,0.158,0.026,0.324,0.079,0.496c0.053,0.172,0.079,0.282,0.079,0.332
			c0,0.086-0.041,0.165-0.122,0.236c-0.082,0.071-0.174,0.106-0.277,0.106c-0.086,0-0.172-0.041-0.256-0.122
			S74.697,76.634,74.602,76.479z M74.546,75.259c-0.124,0.045-0.303,0.093-0.539,0.144s-0.399,0.088-0.49,0.111
			c-0.091,0.023-0.177,0.07-0.26,0.139c-0.083,0.069-0.124,0.166-0.124,0.289c0,0.128,0.048,0.236,0.146,0.326
			c0.097,0.09,0.223,0.135,0.38,0.135c0.167,0,0.321-0.037,0.462-0.11s0.245-0.167,0.311-0.282c0.076-0.128,0.114-0.338,0.114-0.631
			V75.259z"/>
		<path fill="#BB2025" d="M76.23,76.442v-3.659c0-0.169,0.038-0.297,0.113-0.383c0.075-0.087,0.177-0.13,0.305-0.13
			c0.127,0,0.23,0.043,0.309,0.128c0.078,0.086,0.117,0.214,0.117,0.385v3.659c0,0.171-0.04,0.299-0.119,0.385
			c-0.08,0.085-0.182,0.128-0.308,0.128c-0.124,0-0.224-0.044-0.301-0.133C76.269,76.733,76.23,76.607,76.23,76.442z"/>
		<path fill="#BB2025" d="M77.945,76.442v-3.659c0-0.169,0.038-0.297,0.113-0.383c0.075-0.087,0.177-0.13,0.305-0.13
			c0.127,0,0.23,0.043,0.309,0.128c0.078,0.086,0.117,0.214,0.117,0.385v3.659c0,0.171-0.04,0.299-0.119,0.385
			c-0.08,0.085-0.182,0.128-0.308,0.128c-0.124,0-0.224-0.044-0.301-0.133C77.984,76.733,77.945,76.607,77.945,76.442z"/>
	</g>
	<g>
		<path fill="#BB2025" d="M37.273,84.473h-1.385c-0.2,0-0.342-0.045-0.428-0.135c-0.086-0.089-0.128-0.231-0.128-0.428v-3.405
			c0-0.2,0.044-0.344,0.131-0.432c0.087-0.087,0.229-0.131,0.425-0.131h1.468c0.216,0,0.404,0.014,0.563,0.04
			s0.301,0.078,0.427,0.154c0.107,0.064,0.202,0.146,0.284,0.243s0.145,0.206,0.188,0.324s0.065,0.243,0.065,0.375
			c0,0.454-0.227,0.785-0.68,0.995c0.595,0.19,0.893,0.559,0.893,1.106c0,0.254-0.065,0.481-0.195,0.685s-0.305,0.353-0.525,0.45
			c-0.138,0.058-0.297,0.098-0.476,0.122C37.721,84.461,37.512,84.473,37.273,84.473z M36.25,80.632v1.171h0.84
			c0.229,0,0.405-0.021,0.53-0.065c0.125-0.043,0.22-0.125,0.286-0.247c0.051-0.086,0.077-0.183,0.077-0.29
			c0-0.229-0.082-0.381-0.244-0.456s-0.411-0.112-0.745-0.112H36.25z M37.205,82.461H36.25v1.322h0.986c0.62,0,0.93-0.224,0.93-0.67
			c0-0.229-0.081-0.395-0.241-0.498C37.764,82.513,37.524,82.461,37.205,82.461z"/>
		<path fill="#BB2025" d="M41.963,84.074c-0.204,0.158-0.401,0.277-0.592,0.356c-0.19,0.079-0.404,0.119-0.641,0.119
			c-0.216,0-0.406-0.043-0.57-0.128c-0.164-0.086-0.29-0.201-0.378-0.348s-0.133-0.305-0.133-0.477c0-0.23,0.073-0.427,0.219-0.59
			c0.146-0.163,0.347-0.271,0.603-0.327c0.054-0.013,0.187-0.041,0.399-0.084c0.212-0.043,0.394-0.083,0.545-0.119
			s0.315-0.079,0.493-0.131c-0.01-0.223-0.055-0.386-0.134-0.49c-0.079-0.104-0.244-0.156-0.493-0.156
			c-0.214,0-0.375,0.03-0.484,0.09c-0.108,0.06-0.201,0.149-0.278,0.27c-0.078,0.119-0.132,0.198-0.164,0.236
			s-0.101,0.057-0.206,0.057c-0.095,0-0.177-0.03-0.246-0.091S39.8,82.123,39.8,82.028c0-0.148,0.053-0.293,0.158-0.433
			c0.105-0.141,0.269-0.256,0.491-0.347c0.223-0.09,0.5-0.136,0.832-0.136c0.371,0,0.662,0.044,0.875,0.132
			c0.212,0.087,0.362,0.226,0.45,0.415c0.087,0.189,0.131,0.441,0.131,0.754c0,0.198-0.001,0.366-0.002,0.504
			c-0.001,0.139-0.002,0.292-0.004,0.461c0,0.158,0.026,0.324,0.079,0.496c0.053,0.172,0.079,0.282,0.079,0.332
			c0,0.086-0.041,0.165-0.122,0.236c-0.082,0.071-0.174,0.106-0.277,0.106c-0.086,0-0.172-0.041-0.256-0.122
			S42.058,84.229,41.963,84.074z M41.908,82.854c-0.124,0.045-0.303,0.093-0.539,0.144s-0.399,0.088-0.49,0.111
			c-0.091,0.023-0.177,0.07-0.26,0.139c-0.083,0.069-0.124,0.166-0.124,0.289c0,0.128,0.048,0.236,0.146,0.326
			c0.097,0.09,0.223,0.135,0.38,0.135c0.167,0,0.321-0.037,0.462-0.11s0.245-0.167,0.311-0.282c0.076-0.128,0.114-0.338,0.114-0.631
			V82.854z"/>
		<path fill="#BB2025" d="M43.487,81.194h0.093v-0.507c0-0.137,0.003-0.243,0.011-0.32s0.027-0.144,0.061-0.199
			c0.033-0.058,0.08-0.104,0.142-0.141c0.062-0.036,0.131-0.054,0.207-0.054c0.107,0,0.204,0.04,0.291,0.12
			c0.058,0.054,0.094,0.119,0.109,0.196c0.016,0.077,0.023,0.187,0.023,0.329v0.575h0.309c0.12,0,0.21,0.028,0.273,0.085
			s0.094,0.129,0.094,0.218c0,0.113-0.045,0.192-0.134,0.237c-0.09,0.046-0.218,0.068-0.385,0.068h-0.158v1.551
			c0,0.133,0.004,0.233,0.014,0.305s0.034,0.129,0.074,0.173c0.041,0.045,0.106,0.066,0.196,0.066c0.049,0,0.117-0.009,0.201-0.025
			c0.084-0.018,0.15-0.026,0.198-0.026c0.068,0,0.129,0.027,0.184,0.081c0.055,0.055,0.082,0.122,0.082,0.203
			c0,0.136-0.074,0.24-0.223,0.312c-0.148,0.072-0.361,0.108-0.64,0.108c-0.264,0-0.463-0.044-0.6-0.133
			c-0.136-0.089-0.225-0.211-0.267-0.368c-0.042-0.156-0.063-0.365-0.063-0.627v-1.619h-0.111c-0.122,0-0.214-0.029-0.278-0.087
			c-0.064-0.058-0.096-0.131-0.096-0.219c0-0.089,0.033-0.161,0.1-0.218S43.359,81.194,43.487,81.194z"/>
		<path fill="#BB2025" d="M48.706,83.506c0,0.104-0.031,0.217-0.094,0.336c-0.063,0.12-0.159,0.233-0.287,0.342
			c-0.129,0.108-0.291,0.195-0.487,0.262c-0.196,0.065-0.416,0.099-0.661,0.099c-0.521,0-0.928-0.152-1.221-0.456
			c-0.293-0.304-0.439-0.711-0.439-1.223c0-0.346,0.067-0.651,0.201-0.917c0.134-0.266,0.328-0.472,0.581-0.617
			c0.253-0.145,0.556-0.218,0.909-0.218c0.218,0,0.418,0.032,0.601,0.096c0.182,0.064,0.337,0.146,0.463,0.247
			c0.127,0.102,0.224,0.209,0.291,0.323S48.663,82,48.663,82.1c0,0.101-0.038,0.187-0.113,0.256
			c-0.075,0.07-0.167,0.105-0.273,0.105c-0.07,0-0.128-0.018-0.175-0.054s-0.098-0.095-0.156-0.175
			c-0.103-0.157-0.21-0.274-0.323-0.353s-0.255-0.117-0.428-0.117c-0.25,0-0.45,0.097-0.603,0.292
			c-0.152,0.194-0.229,0.461-0.229,0.799c0,0.158,0.02,0.305,0.059,0.438s0.096,0.246,0.17,0.34
			c0.074,0.094,0.164,0.164,0.269,0.213s0.22,0.072,0.346,0.072c0.169,0,0.313-0.039,0.434-0.117s0.227-0.197,0.32-0.358
			c0.052-0.095,0.107-0.169,0.167-0.223c0.06-0.054,0.133-0.08,0.219-0.08c0.103,0,0.188,0.039,0.257,0.117
			C48.672,83.333,48.706,83.417,48.706,83.506z"/>
		<path fill="#BB2025" d="M50.115,80.378v1.252c0.107-0.124,0.212-0.222,0.314-0.294c0.102-0.072,0.214-0.126,0.338-0.162
			c0.124-0.036,0.256-0.054,0.398-0.054c0.214,0,0.404,0.045,0.57,0.136c0.166,0.091,0.296,0.223,0.391,0.396
			c0.06,0.101,0.1,0.214,0.121,0.338c0.021,0.125,0.031,0.269,0.031,0.432v1.616c0,0.169-0.039,0.297-0.116,0.383
			c-0.077,0.087-0.18,0.13-0.308,0.13c-0.278,0-0.417-0.171-0.417-0.513v-1.425c0-0.27-0.04-0.478-0.121-0.623
			c-0.08-0.145-0.233-0.218-0.458-0.218c-0.15,0-0.286,0.043-0.406,0.129c-0.121,0.085-0.21,0.202-0.271,0.351
			c-0.045,0.125-0.068,0.349-0.068,0.67v1.116c0,0.167-0.038,0.294-0.113,0.382c-0.075,0.087-0.18,0.131-0.313,0.131
			c-0.278,0-0.417-0.171-0.417-0.513v-3.659c0-0.171,0.037-0.299,0.11-0.385c0.073-0.085,0.176-0.128,0.308-0.128
			c0.134,0,0.238,0.043,0.313,0.13C50.077,80.081,50.115,80.209,50.115,80.378z"/>
		<path fill="#BB2025" d="M55.467,83.042h-1.65c0.002,0.191,0.041,0.36,0.116,0.507s0.175,0.256,0.3,0.33
			c0.125,0.074,0.262,0.111,0.413,0.111c0.101,0,0.193-0.012,0.276-0.035s0.164-0.061,0.243-0.111
			c0.078-0.051,0.15-0.104,0.216-0.162s0.151-0.136,0.256-0.235c0.043-0.037,0.105-0.056,0.186-0.056
			c0.086,0,0.156,0.024,0.21,0.071c0.054,0.048,0.081,0.114,0.081,0.201c0,0.076-0.03,0.165-0.09,0.268
			c-0.06,0.102-0.15,0.199-0.271,0.293c-0.12,0.094-0.272,0.172-0.454,0.233s-0.392,0.093-0.629,0.093
			c-0.542,0-0.963-0.154-1.264-0.464c-0.301-0.309-0.451-0.728-0.451-1.257c0-0.25,0.037-0.481,0.111-0.694
			c0.074-0.213,0.183-0.396,0.325-0.549c0.142-0.152,0.317-0.269,0.525-0.351c0.208-0.081,0.439-0.122,0.692-0.122
			c0.33,0,0.612,0.069,0.848,0.209c0.236,0.139,0.413,0.318,0.53,0.539c0.118,0.221,0.176,0.445,0.176,0.674
			c0,0.212-0.061,0.35-0.182,0.412C55.859,83.011,55.688,83.042,55.467,83.042z M53.817,82.563h1.53
			c-0.021-0.288-0.098-0.504-0.233-0.647c-0.135-0.143-0.313-0.215-0.533-0.215c-0.21,0-0.383,0.073-0.518,0.219
			C53.928,82.063,53.846,82.278,53.817,82.563z"/>
		<path fill="#BB2025" d="M59.589,83.446c0,0.233-0.057,0.433-0.17,0.599s-0.281,0.291-0.502,0.377
			c-0.222,0.085-0.491,0.128-0.808,0.128c-0.303,0-0.563-0.046-0.779-0.139s-0.376-0.209-0.479-0.348
			c-0.103-0.14-0.154-0.279-0.154-0.419c0-0.093,0.033-0.172,0.099-0.238c0.066-0.065,0.149-0.099,0.25-0.099
			c0.088,0,0.156,0.021,0.204,0.064c0.047,0.044,0.092,0.104,0.136,0.183c0.086,0.15,0.19,0.263,0.311,0.337
			s0.285,0.111,0.493,0.111c0.169,0,0.308-0.037,0.416-0.112c0.108-0.075,0.162-0.162,0.162-0.259c0-0.148-0.056-0.256-0.168-0.324
			s-0.297-0.133-0.555-0.194c-0.291-0.072-0.527-0.148-0.709-0.228c-0.183-0.079-0.328-0.184-0.438-0.313s-0.164-0.29-0.164-0.479
			c0-0.169,0.05-0.328,0.151-0.479c0.101-0.15,0.25-0.271,0.446-0.36s0.434-0.134,0.712-0.134c0.218,0,0.415,0.022,0.589,0.067
			c0.174,0.046,0.319,0.106,0.436,0.183s0.205,0.16,0.266,0.253c0.061,0.093,0.091,0.184,0.091,0.272
			c0,0.097-0.032,0.176-0.097,0.238c-0.065,0.062-0.157,0.092-0.277,0.092c-0.086,0-0.16-0.024-0.221-0.074
			c-0.061-0.049-0.13-0.123-0.208-0.222c-0.064-0.083-0.139-0.148-0.226-0.198c-0.087-0.049-0.204-0.074-0.353-0.074
			c-0.152,0-0.279,0.032-0.38,0.098c-0.101,0.064-0.152,0.146-0.152,0.242c0,0.089,0.037,0.161,0.111,0.218s0.174,0.104,0.3,0.141
			c0.126,0.037,0.299,0.083,0.519,0.137c0.262,0.063,0.476,0.14,0.642,0.229c0.166,0.088,0.292,0.193,0.377,0.313
			S59.589,83.292,59.589,83.446z"/>
		<path fill="#BB2025" d="M61.818,81.194h0.201V80.94c0-0.264,0.033-0.474,0.1-0.629s0.18-0.269,0.34-0.34s0.379-0.106,0.657-0.106
			c0.493,0,0.739,0.12,0.739,0.361c0,0.078-0.026,0.146-0.077,0.201c-0.052,0.056-0.112,0.083-0.183,0.083
			c-0.033,0-0.089-0.006-0.17-0.019c-0.08-0.012-0.148-0.019-0.204-0.019c-0.152,0-0.25,0.045-0.293,0.135
			c-0.043,0.09-0.065,0.218-0.065,0.385v0.201h0.207c0.322,0,0.482,0.097,0.482,0.29c0,0.138-0.043,0.226-0.128,0.263
			s-0.204,0.056-0.354,0.056h-0.207v2.234c0,0.167-0.04,0.294-0.119,0.382c-0.08,0.087-0.182,0.131-0.308,0.131
			c-0.12,0-0.219-0.044-0.298-0.131c-0.079-0.088-0.119-0.215-0.119-0.382v-2.234h-0.232c-0.126,0-0.223-0.028-0.291-0.085
			s-0.102-0.131-0.102-0.221C61.395,81.295,61.536,81.194,61.818,81.194z"/>
		<path fill="#BB2025" d="M67.07,82.835c0,0.251-0.04,0.483-0.118,0.695s-0.191,0.395-0.34,0.547s-0.326,0.27-0.532,0.351
			s-0.438,0.122-0.695,0.122c-0.255,0-0.485-0.041-0.689-0.123c-0.204-0.083-0.381-0.201-0.53-0.354
			c-0.149-0.153-0.263-0.335-0.34-0.544c-0.077-0.209-0.116-0.44-0.116-0.693c0-0.256,0.039-0.489,0.117-0.701
			c0.079-0.213,0.191-0.394,0.337-0.544c0.146-0.15,0.324-0.267,0.532-0.348c0.208-0.082,0.438-0.122,0.689-0.122
			c0.255,0,0.487,0.041,0.695,0.123c0.208,0.083,0.386,0.2,0.535,0.353s0.261,0.334,0.338,0.544S67.07,82.581,67.07,82.835z
			 M66.223,82.835c0-0.344-0.076-0.612-0.227-0.804s-0.355-0.287-0.61-0.287c-0.165,0-0.31,0.043-0.436,0.128
			c-0.126,0.086-0.223,0.212-0.291,0.379s-0.102,0.361-0.102,0.584c0,0.221,0.034,0.413,0.101,0.578
			c0.067,0.164,0.163,0.291,0.287,0.378c0.125,0.088,0.271,0.132,0.44,0.132c0.255,0,0.459-0.097,0.61-0.289
			S66.223,83.175,66.223,82.835z"/>
		<path fill="#BB2025" d="M68.571,83.332v0.705c0,0.171-0.041,0.299-0.121,0.385c-0.081,0.085-0.183,0.128-0.306,0.128
			c-0.122,0-0.221-0.043-0.3-0.13c-0.078-0.086-0.117-0.214-0.117-0.383v-2.349c0-0.379,0.137-0.568,0.411-0.568
			c0.14,0,0.241,0.044,0.303,0.133c0.062,0.088,0.096,0.219,0.102,0.393c0.101-0.174,0.204-0.305,0.311-0.393
			c0.106-0.089,0.248-0.133,0.425-0.133s0.349,0.044,0.516,0.133c0.167,0.088,0.25,0.206,0.25,0.352
			c0,0.104-0.035,0.188-0.106,0.255c-0.071,0.067-0.148,0.101-0.23,0.101c-0.031,0-0.106-0.019-0.224-0.057
			c-0.119-0.038-0.223-0.058-0.314-0.058c-0.124,0-0.225,0.032-0.303,0.098c-0.078,0.064-0.139,0.161-0.182,0.289
			c-0.043,0.128-0.073,0.279-0.09,0.456C68.579,82.864,68.571,83.079,68.571,83.332z"/>
		<path fill="#BB2025" d="M70.28,84.55c-0.128,0-0.238-0.041-0.331-0.123c-0.093-0.083-0.139-0.198-0.139-0.347
			c0-0.126,0.044-0.233,0.133-0.324s0.198-0.136,0.328-0.136s0.24,0.044,0.332,0.134s0.138,0.198,0.138,0.326
			c0,0.146-0.046,0.262-0.138,0.345S70.404,84.55,70.28,84.55z"/>
	</g>
</g>
</svg>
