<?xml version="1.0" encoding="utf-8"?>
<!-- Generator: Adobe Illustrator 16.0.0, SVG Export Plug-In . SVG Version: 6.00 Build 0)  -->
<!DOCTYPE svg PUBLIC "-//W3C//DTD SVG 1.1//EN" "http://www.w3.org/Graphics/SVG/1.1/DTD/svg11.dtd">
<svg version="1.1" id="Layer_1" xmlns="http://www.w3.org/2000/svg" xmlns:xlink="http://www.w3.org/1999/xlink"
     x="0px" y="0px" width="100%" height="100%" viewBox="39 268 600 280" enable-background="new 0 290 700 120"
     xml:space="preserve"><g>
	<path fill="none" stroke="#FFB92E" stroke-width="5.255" d="M186.364,342.393v-52.806c0,0,0-13.663-13.663-13.663H91.773
		c0,0-13.663,0-13.663,13.663v39.143c0,0,0,13.663-13.663,13.663H44"/>
	<path fill="none" stroke="#FF367D" stroke-width="5.255" d="M402.978,342.393v-52.806c0,0,0-13.663-13.663-13.663h-80.928
		c0,0-13.663,0-13.663,13.663v52.806"/>
	<path fill="none" stroke="#8FBE20" stroke-width="5.255" d="M656,342.393h-22.853c0,0-13.663,0-13.663-13.663v-39.143
		c0,0,0-13.663-13.662-13.663h-80.929c0,0-13.663,0-13.663,13.663v52.806"/>
	<path fill="none" stroke="#FF6225" stroke-width="5.255" d="M294.618,356.903v52.806c0,0,0,13.663-13.663,13.663h-80.928
		c0,0-13.663,0-13.663-13.663v-52.806"/>
	<path fill="none" stroke="#2178FA" stroke-width="5.255" d="M511.231,356.903v52.806c0,0,0,13.663-13.663,13.663H416.64
		c0,0-13.662,0-13.662-13.663v-52.806"/>
</g>
<line fill="none" stroke="#A6A8AB" stroke-width="1.5" x1="186.364" y1="342.189" x2="186.364" y2="356.903"/>
<line fill="none" stroke="#A6A8AB" stroke-width="1.5" x1="294.513" y1="342.189" x2="294.513" y2="356.903"/>
<line fill="none" stroke="#A6A8AB" stroke-width="1.5" x1="511.021" y1="342.189" x2="511.021" y2="356.903"/>
<line fill="none" stroke="#A6A8AB" stroke-width="1.5" x1="402.978" y1="342.189" x2="402.978" y2="356.903"/>
<g>
	<path fill="#A6A8AB" d="M186.364,351.911c1.306,0,2.365-1.059,2.365-2.365c0-1.306-1.059-2.365-2.365-2.365
		c-1.306,0-2.365,1.06-2.365,2.365C183.999,350.853,185.058,351.911,186.364,351.911"/>
	<path fill="#A6A8AB" d="M294.513,351.911c1.306,0,2.365-1.059,2.365-2.365c0-1.306-1.059-2.365-2.365-2.365
		c-1.306,0-2.365,1.06-2.365,2.365C292.148,350.853,293.207,351.911,294.513,351.911"/>
	<path fill="#A6A8AB" d="M511.021,351.911c1.307,0,2.365-1.059,2.365-2.365c0-1.306-1.059-2.365-2.365-2.365
		c-1.306,0-2.364,1.06-2.364,2.365C508.656,350.853,509.715,351.911,511.021,351.911"/>
	<path fill="#A6A8AB" d="M402.978,351.911c1.306,0,2.364-1.059,2.364-2.365c0-1.306-1.059-2.365-2.364-2.365
		c-1.307,0-2.365,1.06-2.365,2.365C400.612,350.853,401.671,351.911,402.978,351.911"/>
</g>
</svg>
